<svg width="604" height="80" viewBox="0 0 604 80" fill="none" xmlns="http://www.w3.org/2000/svg">
<path d="M25.1855 59.0993C21.9333 59.0993 18.719 58.6832 15.5424 57.8511C12.4415 57.0189 9.52966 55.8463 6.8069 54.3333C4.15977 52.7447 1.8908 50.9291 0 48.8865L9.87 38.9007C11.6852 40.8676 13.8407 42.4184 16.3366 43.5532C18.8324 44.6123 21.5552 45.1418 24.5048 45.1418C26.5469 45.1418 28.0974 44.8393 29.1562 44.2341C30.2907 43.6288 30.8579 42.7967 30.8579 41.7376C30.8579 40.3759 30.1772 39.3546 28.8159 38.6738C27.5301 37.9173 25.8662 37.2742 23.8241 36.7447C21.7821 36.1395 19.6266 35.4965 17.3576 34.8156C15.0886 34.1348 12.9331 33.1891 10.891 31.9787C8.84897 30.7683 7.18506 29.104 5.89931 26.9858C4.61356 24.792 3.97069 22.0307 3.97069 18.7021C3.97069 15.1466 4.87828 12.0827 6.69345 9.51064C8.50862 6.86288 11.0801 4.7825 14.4079 3.2695C17.7357 1.7565 21.6308 1 26.0931 1C30.7823 1 35.0933 1.83215 39.0262 3.49645C43.0347 5.0851 46.2869 7.46808 48.7828 10.6454L38.9128 20.6312C37.1732 18.5886 35.2068 17.1513 33.0135 16.3191C30.8958 15.487 28.8159 15.0709 26.7738 15.0709C24.8074 15.0709 23.3325 15.3735 22.3493 15.9787C21.3661 16.5083 20.8745 17.3026 20.8745 18.3617C20.8745 19.4965 21.5174 20.4043 22.8031 21.0851C24.0889 21.766 25.7528 22.3712 27.7948 22.9007C29.8369 23.4303 31.9924 24.0733 34.2614 24.8298C36.5303 25.5863 38.6859 26.6076 40.7279 27.8936C42.77 29.1797 44.4339 30.9196 45.7197 33.1135C47.0054 35.2317 47.6483 38.0307 47.6483 41.5106C47.6483 46.8818 45.6062 51.156 41.5221 54.3333C37.5136 57.5106 32.068 59.0993 25.1855 59.0993Z" fill="#3B4055"/>
<path d="M88.8309 58.8723C85.1249 58.8723 81.7215 58.1537 78.6205 56.7163C75.5196 55.279 72.9859 53.3121 71.0195 50.8156C69.0531 48.2435 67.9186 45.331 67.6161 42.078V18.8156C67.9186 15.5626 69.0531 12.6123 71.0195 9.96453C72.9859 7.31678 75.5196 5.2364 78.6205 3.7234C81.7215 2.2104 85.1249 1.4539 88.8309 1.4539C94.0495 1.4539 98.6631 2.70213 102.672 5.19858C106.756 7.69504 109.932 11.0993 112.201 15.4113C114.546 19.7234 115.718 24.6407 115.718 30.1631C115.718 35.6856 114.546 40.6028 112.201 44.9149C109.932 49.2269 106.756 52.6312 102.672 55.1277C98.6631 57.6241 94.0495 58.8723 88.8309 58.8723ZM85.6543 43.2128C88.1502 43.2128 90.3057 42.6454 92.1209 41.5106C94.0117 40.3759 95.4865 38.8251 96.5454 36.8582C97.6042 34.8913 98.1336 32.6596 98.1336 30.1631C98.1336 27.591 97.6042 25.3215 96.5454 23.3546C95.4865 21.3877 94.0117 19.8747 92.1209 18.8156C90.3057 17.6808 88.188 17.1135 85.7678 17.1135C83.3475 17.1135 81.192 17.6808 79.3012 18.8156C77.4861 19.8747 76.049 21.3877 74.9902 23.3546C73.9313 25.3215 73.4019 27.591 73.4019 30.1631C73.4019 32.6596 73.8935 34.8913 74.8767 36.8582C75.9356 38.8251 77.4104 40.3759 79.3012 41.5106C81.192 42.6454 83.3097 43.2128 85.6543 43.2128ZM57.0654 80V2.58865H74.423V16.773L71.5868 30.1631L74.1961 43.5532V80H57.0654Z" fill="#3B4055"/>
<path d="M147.566 58.8723C142.499 58.8723 137.961 57.6241 133.952 55.1277C130.019 52.6312 126.881 49.2269 124.536 44.9149C122.267 40.6028 121.133 35.6856 121.133 30.1631C121.133 24.6407 122.267 19.7234 124.536 15.4113C126.881 11.0993 130.019 7.69504 133.952 5.19858C137.961 2.70213 142.499 1.4539 147.566 1.4539C151.272 1.4539 154.6 2.17257 157.55 3.60992C160.575 5.04728 163.033 7.05201 164.924 9.62411C166.814 12.1206 167.873 14.9953 168.1 18.2482V42.078C167.873 45.331 166.814 48.2435 164.924 50.8156C163.109 53.3121 160.688 55.279 157.663 56.7163C154.638 58.1537 151.272 58.8723 147.566 58.8723ZM151.083 43.2128C154.789 43.2128 157.776 42.0024 160.045 39.5816C162.314 37.0851 163.449 33.9456 163.449 30.1631C163.449 27.591 162.919 25.3215 161.861 23.3546C160.877 21.3877 159.44 19.8747 157.55 18.8156C155.734 17.6808 153.617 17.1135 151.196 17.1135C148.776 17.1135 146.621 17.6808 144.73 18.8156C142.915 19.8747 141.44 21.3877 140.305 23.3546C139.247 25.3215 138.717 27.591 138.717 30.1631C138.717 32.6596 139.247 34.8913 140.305 36.8582C141.364 38.8251 142.839 40.3759 144.73 41.5106C146.621 42.6454 148.738 43.2128 151.083 43.2128ZM162.768 57.7376V42.8723L165.377 29.4823L162.768 16.0922V2.58865H179.785V57.7376H162.768Z" fill="#3B4055"/>
<path d="M218.667 58.9858C212.995 58.9858 207.852 57.7376 203.238 55.2411C198.625 52.7447 194.994 49.3026 192.347 44.9149C189.7 40.5272 188.376 35.6099 188.376 30.1631C188.376 24.6407 189.7 19.7234 192.347 15.4113C195.07 11.0236 198.738 7.58156 203.352 5.0851C207.965 2.58865 213.146 1.34042 218.894 1.34042C223.205 1.34042 227.138 2.09692 230.693 3.60992C234.323 5.04728 237.537 7.24113 240.336 10.1915L229.218 21.3121C227.932 19.8747 226.419 18.8156 224.68 18.1347C223.016 17.4539 221.087 17.1135 218.894 17.1135C216.398 17.1135 214.167 17.6808 212.201 18.8156C210.31 19.8747 208.797 21.3877 207.663 23.3546C206.604 25.2459 206.074 27.4775 206.074 30.0496C206.074 32.6217 206.604 34.8913 207.663 36.8582C208.797 38.8251 210.348 40.3759 212.314 41.5106C214.28 42.6454 216.474 43.2128 218.894 43.2128C221.163 43.2128 223.167 42.8345 224.907 42.078C226.722 41.2459 228.272 40.1111 229.558 38.6738L240.563 49.7943C237.689 52.8203 234.436 55.1277 230.806 56.7163C227.176 58.2293 223.129 58.9858 218.667 58.9858Z" fill="#3B4055"/>
<path d="M274.186 58.9858C268.211 58.9858 262.879 57.7754 258.19 55.3546C253.576 52.8582 249.946 49.4161 247.299 45.0284C244.651 40.6407 243.328 35.6856 243.328 30.1631C243.328 24.6407 244.614 19.7234 247.185 15.4113C249.832 11.0236 253.387 7.58156 257.849 5.0851C262.312 2.58865 267.341 1.34042 272.938 1.34042C278.383 1.34042 283.186 2.513 287.346 4.85815C291.506 7.20331 294.758 10.4563 297.102 14.617C299.523 18.7778 300.733 23.5437 300.733 28.9149C300.733 29.8983 300.657 30.9574 300.506 32.0922C300.43 33.1513 300.241 34.3995 299.939 35.8369L252.404 35.9504V24.0355L292.564 23.922L285.077 28.9149C285.001 25.7376 284.51 23.1277 283.602 21.0851C282.694 18.9669 281.333 17.3783 279.518 16.3191C277.778 15.1844 275.623 14.617 273.051 14.617C270.329 14.617 267.946 15.26 265.904 16.5461C263.938 17.7565 262.387 19.4965 261.253 21.766C260.194 24.0355 259.664 26.7967 259.664 30.0496C259.664 33.3026 260.232 36.1017 261.366 38.4468C262.576 40.7163 264.24 42.4941 266.358 43.7801C268.551 44.9905 271.123 45.5958 274.072 45.5958C276.795 45.5958 279.253 45.1419 281.447 44.2341C283.64 43.2506 285.569 41.8132 287.232 39.922L296.762 49.4539C294.039 52.6312 290.749 55.0142 286.892 56.6028C283.035 58.1915 278.799 58.9858 274.186 58.9858Z" fill="#3B4055"/>
<path d="M329.191 59.0993C325.939 59.0993 322.725 58.6832 319.548 57.8511C316.447 57.0189 313.536 55.8463 310.813 54.3333C308.166 52.7447 305.897 50.9291 304.006 48.8865L313.876 38.9007C315.691 40.8676 317.847 42.4184 320.342 43.5532C322.838 44.6123 325.561 45.1418 328.511 45.1418C330.553 45.1418 332.103 44.8393 333.162 44.2341C334.297 43.6288 334.864 42.7967 334.864 41.7376C334.864 40.3759 334.183 39.3546 332.822 38.6738C331.536 37.9173 329.872 37.2742 327.83 36.7447C325.788 36.1395 323.632 35.4965 321.364 34.8156C319.095 34.1348 316.939 33.1891 314.897 31.9787C312.855 30.7683 311.191 29.104 309.905 26.9858C308.62 24.792 307.977 22.0307 307.977 18.7021C307.977 15.1466 308.884 12.0827 310.699 9.51064C312.515 6.86288 315.086 4.7825 318.414 3.2695C321.742 1.7565 325.637 1 330.099 1C334.788 1 339.099 1.83215 343.032 3.49645C347.041 5.0851 350.293 7.46808 352.789 10.6454L342.919 20.6312C341.179 18.5886 339.213 17.1513 337.019 16.3191C334.902 15.487 332.822 15.0709 330.78 15.0709C328.813 15.0709 327.338 15.3735 326.355 15.9787C325.372 16.5083 324.88 17.3026 324.88 18.3617C324.88 19.4965 325.523 20.4043 326.809 21.0851C328.095 21.766 329.759 22.3712 331.801 22.9007C333.843 23.4303 335.998 24.0733 338.267 24.8298C340.536 25.5863 342.692 26.6076 344.734 27.8936C346.776 29.1797 348.44 30.9196 349.726 33.1135C351.011 35.2317 351.654 38.0307 351.654 41.5106C351.654 46.8818 349.612 51.156 345.528 54.3333C341.52 57.5106 336.074 59.0993 329.191 59.0993Z" fill="#3B4055"/>
<path d="M387.732 58.9858C382.059 58.9858 376.916 57.7376 372.303 55.2411C367.689 52.7447 364.059 49.3026 361.412 44.9149C358.764 40.5272 357.441 35.6099 357.441 30.1631C357.441 24.6407 358.764 19.7234 361.412 15.4113C364.134 11.0236 367.803 7.58156 372.416 5.0851C377.03 2.58865 382.211 1.34042 387.959 1.34042C392.27 1.34042 396.202 2.09692 399.757 3.60992C403.388 5.04728 406.602 7.24113 409.4 10.1915L398.282 21.3121C396.997 19.8747 395.484 18.8156 393.744 18.1347C392.08 17.4539 390.152 17.1135 387.959 17.1135C385.463 17.1135 383.232 17.6808 381.265 18.8156C379.374 19.8747 377.862 21.3877 376.727 23.3546C375.668 25.2459 375.139 27.4775 375.139 30.0496C375.139 32.6217 375.668 34.8913 376.727 36.8582C377.862 38.8251 379.412 40.3759 381.379 41.5106C383.345 42.6454 385.538 43.2128 387.959 43.2128C390.228 43.2128 392.232 42.8345 393.971 42.078C395.786 41.2459 397.337 40.1111 398.623 38.6738L409.627 49.7943C406.753 52.8203 403.501 55.1277 399.871 56.7163C396.24 58.2293 392.194 58.9858 387.732 58.9858Z" fill="#3B4055"/>
<path d="M514.52 58.8723C510.814 58.8723 507.411 58.1537 504.31 56.7163C501.209 55.279 498.675 53.3121 496.709 50.8156C494.743 48.2435 493.608 45.331 493.306 42.078V18.8156C493.608 15.5626 494.743 12.6123 496.709 9.96453C498.675 7.31678 501.209 5.2364 504.31 3.7234C507.411 2.2104 510.814 1.4539 514.52 1.4539C519.739 1.4539 524.353 2.70213 528.361 5.19858C532.445 7.69504 535.622 11.0993 537.891 15.4113C540.235 19.7234 541.408 24.6407 541.408 30.1631C541.408 35.6856 540.235 40.6028 537.891 44.9149C535.622 49.2269 532.445 52.6312 528.361 55.1277C524.353 57.6241 519.739 58.8723 514.52 58.8723ZM511.344 43.2128C513.84 43.2128 515.995 42.6454 517.81 41.5106C519.701 40.3759 521.176 38.8251 522.235 36.8582C523.294 34.8913 523.823 32.6596 523.823 30.1631C523.823 27.591 523.294 25.3215 522.235 23.3546C521.176 21.3877 519.701 19.8747 517.81 18.8156C515.995 17.6808 513.878 17.1135 511.457 17.1135C509.037 17.1135 506.882 17.6808 504.991 18.8156C503.176 19.8747 501.739 21.3877 500.68 23.3546C499.621 25.3215 499.091 27.591 499.091 30.1631C499.091 32.6596 499.583 34.8913 500.566 36.8582C501.625 38.8251 503.1 40.3759 504.991 41.5106C506.882 42.6454 508.999 43.2128 511.344 43.2128ZM482.755 80V2.58865H500.112V16.773L497.276 30.1631L499.886 43.5532V80H482.755Z" fill="#3B4055"/>
<path d="M577.453 58.9858C571.478 58.9858 566.146 57.7754 561.457 55.3546C556.843 52.8582 553.213 49.4161 550.566 45.0284C547.919 40.6407 546.595 35.6856 546.595 30.1631C546.595 24.6407 547.881 19.7234 550.452 15.4113C553.1 11.0236 556.654 7.58156 561.117 5.0851C565.579 2.58865 570.608 1.34042 576.205 1.34042C581.651 1.34042 586.453 2.513 590.613 4.85815C594.773 7.20331 598.025 10.4563 600.37 14.617C602.79 18.7778 604 23.5437 604 28.9149C604 29.8983 603.924 30.9574 603.773 32.0922C603.698 33.1513 603.508 34.3995 603.206 35.8369L555.671 35.9504V24.0355L595.832 23.922L588.344 28.9149C588.269 25.7376 587.777 23.1277 586.869 21.0851C585.962 18.9669 584.6 17.3783 582.785 16.3191C581.046 15.1844 578.89 14.617 576.319 14.617C573.596 14.617 571.213 15.26 569.171 16.5461C567.205 17.7565 565.654 19.4965 564.52 21.766C563.461 24.0355 562.932 26.7967 562.932 30.0496C562.932 33.3026 563.499 36.1017 564.633 38.4468C565.844 40.7163 567.508 42.4941 569.625 43.7801C571.819 44.9905 574.39 45.5958 577.34 45.5958C580.062 45.5958 582.521 45.1419 584.714 44.2341C586.907 43.2506 588.836 41.8132 590.5 39.922L600.029 49.4539C597.307 52.6312 594.017 55.0142 590.159 56.6028C586.302 58.1915 582.067 58.9858 577.453 58.9858Z" fill="#3B4055"/>
<path fill-rule="evenodd" clip-rule="evenodd" d="M443 55C456.807 55 468 43.8071 468 30C468 16.1929 456.807 5 443 5C429.193 5 418 16.1929 418 30C418 43.8071 429.193 55 443 55ZM443 60C459.569 60 473 46.5685 473 30C473 13.4315 459.569 0 443 0C426.431 0 413 13.4315 413 30C413 46.5685 426.431 60 443 60Z" fill="#1DE9B6"/>
<path fill-rule="evenodd" clip-rule="evenodd" d="M448.516 42.4092C458.181 42.4092 466.016 34.5742 466.016 24.9092C466.016 15.2442 458.181 7.40918 448.516 7.40918C438.851 7.40918 431.016 15.2442 431.016 24.9092C431.016 34.5742 438.851 42.4092 448.516 42.4092ZM448.516 47.4092C460.942 47.4092 471.016 37.3356 471.016 24.9092C471.016 12.4828 460.942 2.40918 448.516 2.40918C436.089 2.40918 426.016 12.4828 426.016 24.9092C426.016 37.3356 436.089 47.4092 448.516 47.4092Z" fill="#1DE9B6"/>
<path fill-rule="evenodd" clip-rule="evenodd" d="M453.606 29.3926C459.129 29.3926 463.606 24.9154 463.606 19.3926C463.606 13.8697 459.129 9.39258 453.606 9.39258C448.084 9.39258 443.606 13.8697 443.606 19.3926C443.606 24.9154 448.084 29.3926 453.606 29.3926ZM453.606 34.3926C461.891 34.3926 468.606 27.6768 468.606 19.3926C468.606 11.1083 461.891 4.39258 453.606 4.39258C445.322 4.39258 438.606 11.1083 438.606 19.3926C438.606 27.6768 445.322 34.3926 453.606 34.3926Z" fill="#1DE9B6"/>
<path d="M471 9.5C471 13.6421 467.642 17 463.5 17C459.358 17 456 13.6421 456 9.5C456 5.35786 459.358 2 463.5 2C467.642 2 471 5.35786 471 9.5Z" fill="#3B4055"/>
</svg>
