<svg width="60" height="60" viewBox="0 0 60 60" fill="none" xmlns="http://www.w3.org/2000/svg">
<path fill-rule="evenodd" clip-rule="evenodd" d="M30 55C43.8071 55 55 43.8071 55 30C55 16.1929 43.8071 5 30 5C16.1929 5 5 16.1929 5 30C5 43.8071 16.1929 55 30 55ZM30 60C46.5685 60 60 46.5685 60 30C60 13.4315 46.5685 0 30 0C13.4315 0 0 13.4315 0 30C0 46.5685 13.4315 60 30 60Z" fill="#3B4055"/>
<path fill-rule="evenodd" clip-rule="evenodd" d="M35.5156 42.4092C45.1806 42.4092 53.0156 34.5742 53.0156 24.9092C53.0156 15.2442 45.1806 7.40918 35.5156 7.40918C25.8506 7.40918 18.0156 15.2442 18.0156 24.9092C18.0156 34.5742 25.8506 42.4092 35.5156 42.4092ZM35.5156 47.4092C47.942 47.4092 58.0156 37.3356 58.0156 24.9092C58.0156 12.4828 47.942 2.40918 35.5156 2.40918C23.0892 2.40918 13.0156 12.4828 13.0156 24.9092C13.0156 37.3356 23.0892 47.4092 35.5156 47.4092Z" fill="#3B4055"/>
<path fill-rule="evenodd" clip-rule="evenodd" d="M40.6064 29.3926C46.1293 29.3926 50.6064 24.9154 50.6064 19.3926C50.6064 13.8697 46.1293 9.39258 40.6064 9.39258C35.0836 9.39258 30.6064 13.8697 30.6064 19.3926C30.6064 24.9154 35.0836 29.3926 40.6064 29.3926ZM40.6064 34.3926C48.8907 34.3926 55.6064 27.6768 55.6064 19.3926C55.6064 11.1083 48.8907 4.39258 40.6064 4.39258C32.3222 4.39258 25.6064 11.1083 25.6064 19.3926C25.6064 27.6768 32.3222 34.3926 40.6064 34.3926Z" fill="#3B4055"/>
<path d="M58 9.5C58 13.6421 54.6421 17 50.5 17C46.3579 17 43 13.6421 43 9.5C43 5.35786 46.3579 2 50.5 2C54.6421 2 58 5.35786 58 9.5Z" fill="#3B4055"/>
</svg>
