<svg width="36" height="33" viewBox="0 0 36 33" fill="none" xmlns="http://www.w3.org/2000/svg">
<path fill-rule="evenodd" clip-rule="evenodd" d="M21.062 16.6399C22.1257 16.0228 23.4858 16.389 24.0999 17.4578C24.7141 18.5266 24.3496 19.8934 23.2859 20.5104L2.38541 32.6358C2.22794 32.7272 2.02658 32.673 1.93566 32.5147C1.84474 32.3565 1.8987 32.1542 2.05617 32.0628L5.43038 30.1053C5.53674 30.0436 5.57319 29.9069 5.51178 29.8C5.45037 29.6931 5.31435 29.6565 5.20798 29.7182L1.74124 31.7294C1.63487 31.7911 1.49886 31.7545 1.43745 31.6476C1.37604 31.5407 1.41248 31.4041 1.51885 31.3424L8.83753 27.0965C8.9439 27.0347 8.98034 26.8981 8.91893 26.7912C8.85752 26.6843 8.72151 26.6477 8.61514 26.7094L1.29646 30.9553C1.19009 31.017 1.05408 30.9804 0.992666 30.8735C0.931254 30.7666 0.967699 30.63 1.07407 30.5682L6.46678 27.4397C6.57315 27.378 6.60959 27.2413 6.54818 27.1344C6.48677 27.0275 6.35075 26.9909 6.24439 27.0526L0.851676 30.1812C0.745307 30.2429 0.609295 30.2063 0.547883 30.0994C0.486471 29.9925 0.522916 29.8558 0.629284 29.7941L2.55525 28.6768C2.66162 28.6151 2.69806 28.4784 2.63665 28.3715C2.57524 28.2646 2.43923 28.228 2.33286 28.2897L0.506953 29.349C0.345323 29.4428 0.138647 29.3871 0.0453303 29.2247C-0.0479862 29.0623 0.00739194 28.8546 0.169022 28.7609L21.062 16.6399Z" fill="#3B4055"/>
<path fill-rule="evenodd" clip-rule="evenodd" d="M32.478 0.299765C33.5417 -0.317328 34.9018 0.0488825 35.516 1.11772C36.1301 2.18655 35.7656 3.55327 34.7019 4.17036L13.8014 16.2957C13.644 16.3871 13.4426 16.3329 13.3517 16.1746C13.2608 16.0164 13.3147 15.8141 13.4722 15.7227L16.8464 13.7652C16.9528 13.7035 16.9892 13.5668 16.9278 13.4599C16.8664 13.353 16.7304 13.3164 16.624 13.3781L13.1573 15.3893C13.0509 15.451 12.9149 15.4144 12.8535 15.3075C12.7921 15.2007 12.8285 15.064 12.9349 15.0023L20.2535 10.7564C20.3599 10.6947 20.3964 10.558 20.3349 10.4511C20.2735 10.3442 20.1375 10.3076 20.0312 10.3693L12.7125 14.6152C12.6061 14.6769 12.4701 14.6403 12.4087 14.5334C12.3473 14.4265 12.3837 14.2899 12.4901 14.2282L17.8828 11.0996C17.9892 11.0379 18.0256 10.9012 17.9642 10.7943C17.9028 10.6874 17.7668 10.6508 17.6604 10.7125L12.2677 13.8411C12.1613 13.9028 12.0253 13.8662 11.9639 13.7593C11.9025 13.6524 11.9389 13.5157 12.0453 13.454L13.9713 12.3367C14.0776 12.275 14.1141 12.1383 14.0527 12.0314C13.9913 11.9245 13.8552 11.8879 13.7489 11.9496L11.923 13.0089C11.7613 13.1027 11.5547 13.047 11.4613 12.8846C11.368 12.7222 11.4234 12.5145 11.585 12.4208L32.478 0.299765Z" fill="#3B4055"/>
<path fill-rule="evenodd" clip-rule="evenodd" d="M17.9068 26.4128C23.4698 26.4128 27.9795 21.9031 27.9795 16.3401C27.9795 10.7772 23.4698 6.26747 17.9068 6.26747C12.3438 6.26747 7.83412 10.7772 7.83412 16.3401C7.83412 21.9031 12.3438 26.4128 17.9068 26.4128ZM17.9068 29.7704C25.3241 29.7704 31.337 23.7575 31.337 16.3401C31.337 8.92283 25.3241 2.90991 17.9068 2.90991C10.4895 2.90991 4.47656 8.92283 4.47656 16.3401C4.47656 23.7575 10.4895 29.7704 17.9068 29.7704Z" fill="#3B4055"/>
</svg>
