<svg width="132" height="120" viewBox="0 0 132 120" fill="none" xmlns="http://www.w3.org/2000/svg">
<path fill-rule="evenodd" clip-rule="evenodd" d="M77.3385 61.1007C81.2443 58.8348 86.2386 60.1795 88.4936 64.1042C90.7486 68.0289 89.4104 73.0474 85.5046 75.3133L8.75911 119.837C8.18087 120.173 7.44148 119.973 7.10764 119.392C6.77379 118.811 6.97191 118.068 7.55015 117.733L19.94 110.545C20.3306 110.318 20.4644 109.817 20.2389 109.424C20.0134 109.032 19.514 108.897 19.1234 109.124L6.39374 116.509C6.00317 116.735 5.50374 116.601 5.27823 116.208C5.05273 115.816 5.18656 115.314 5.57713 115.088L32.4509 99.4968C32.8415 99.2702 32.9753 98.7683 32.7498 98.3759C32.5243 97.9834 32.0249 97.8489 31.6343 98.0755L4.76052 113.666C4.36995 113.893 3.87052 113.758 3.64502 113.366C3.41951 112.973 3.55334 112.472 3.94392 112.245L23.7456 100.757C24.1362 100.53 24.27 100.029 24.0445 99.6362C23.819 99.2437 23.3196 99.1092 22.929 99.3358L3.12731 110.824C2.73673 111.05 2.2373 110.916 2.0118 110.523C1.7863 110.131 1.92012 109.629 2.3107 109.402L9.38274 105.3C9.77332 105.073 9.90714 104.571 9.68164 104.179C9.45614 103.786 8.95671 103.652 8.56613 103.878L1.8615 107.768C1.26801 108.112 0.509105 107.908 0.16645 107.312C-0.176203 106.715 0.0271428 105.953 0.620638 105.608L77.3385 61.1007Z" fill="#3B4055"/>
<path fill-rule="evenodd" clip-rule="evenodd" d="M119.257 1.10072C123.162 -1.16521 128.157 0.179494 130.412 4.1042C132.667 8.0289 131.328 13.0474 127.423 15.3133L50.6771 59.837C50.0988 60.1725 49.3595 59.9734 49.0256 59.3924C48.6918 58.8113 48.8899 58.0684 49.4681 57.7329L61.858 50.5449C62.2486 50.3184 62.3824 49.8165 62.1569 49.424C61.9314 49.0316 61.432 48.8971 61.0414 49.1237L48.3117 56.5088C47.9211 56.7354 47.4217 56.6009 47.1962 56.2084C46.9707 55.816 47.1045 55.3141 47.4951 55.0875L74.3689 39.4968C74.7595 39.2702 74.8933 38.7683 74.6678 38.3759C74.4423 37.9834 73.9429 37.8489 73.5523 38.0755L46.6785 53.6663C46.2879 53.8929 45.7885 53.7584 45.563 53.3659C45.3375 52.9734 45.4713 52.4716 45.8619 52.245L65.6636 40.7571C66.0542 40.5305 66.188 40.0286 65.9625 39.6362C65.737 39.2437 65.2376 39.1092 64.847 39.3358L45.0453 50.8237C44.6547 51.0503 44.1553 50.9159 43.9298 50.5234C43.7043 50.1309 43.8381 49.6291 44.2287 49.4025L51.3007 45.2996C51.6913 45.073 51.8251 44.5712 51.5996 44.1787C51.3741 43.7863 50.8747 43.6518 50.4841 43.8784L43.7795 47.7681C43.186 48.1124 42.4271 47.908 42.0844 47.3117C41.7418 46.7153 41.9451 45.9527 42.5386 45.6084L119.257 1.10072Z" fill="#3B4055"/>
<path fill-rule="evenodd" clip-rule="evenodd" d="M65.7535 96.9862C86.1805 96.9862 102.74 80.4268 102.74 59.9999C102.74 39.5729 86.1805 23.0136 65.7535 23.0136C45.3266 23.0136 28.7672 39.5729 28.7672 59.9999C28.7672 80.4268 45.3266 96.9862 65.7535 96.9862ZM65.7535 109.315C92.9895 109.315 115.069 87.2358 115.069 59.9999C115.069 32.7639 92.9895 10.6848 65.7535 10.6848C38.5176 10.6848 16.4385 32.7639 16.4385 59.9999C16.4385 87.2358 38.5176 109.315 65.7535 109.315Z" fill="#3B4055"/>
</svg>
