<svg width="20" height="20" viewBox="0 0 20 20" fill="none" xmlns="http://www.w3.org/2000/svg">
<path d="M4.85501 12.3889C4.85501 13.4236 4.01879 14.2598 2.98415 14.2598C1.9495 14.2598 1.11328 13.4236 1.11328 12.3889C1.11328 11.3543 1.9495 10.5181 2.98415 10.5181H4.85501V12.3889ZM5.79045 12.3889C5.79045 11.3543 6.62667 10.5181 7.66131 10.5181C8.69596 10.5181 9.53218 11.3543 9.53218 12.3889V17.0661C9.53218 18.1007 8.69596 18.937 7.66131 18.937C6.62667 18.937 5.79045 18.1007 5.79045 17.0661V12.3889Z" fill="#ffffff"/>
<path d="M7.66133 4.82669C6.62668 4.82669 5.79046 3.99047 5.79046 2.95583C5.79046 1.92118 6.62668 1.08496 7.66133 1.08496C8.69597 1.08496 9.53219 1.92118 9.53219 2.95583V4.82669H7.66133ZM7.66133 5.7763C8.69597 5.7763 9.53219 6.61252 9.53219 7.64717C9.53219 8.68181 8.69597 9.51803 7.66133 9.51803H2.96999C1.93534 9.51803 1.09912 8.68181 1.09912 7.64717C1.09912 6.61252 1.93534 5.7763 2.96999 5.7763H7.66133Z" fill="#ffffff"/>
<path d="M15.2094 7.64717C15.2094 6.61252 16.0456 5.7763 17.0803 5.7763C18.1149 5.7763 18.9511 6.61252 18.9511 7.64717C18.9511 8.68181 18.1149 9.51803 17.0803 9.51803H15.2094V7.64717ZM14.274 7.64717C14.274 8.68181 13.4377 9.51803 12.4031 9.51803C11.3684 9.51803 10.5322 8.68181 10.5322 7.64717V2.95583C10.5322 1.92118 11.3684 1.08496 12.4031 1.08496C13.4377 1.08496 14.274 1.92118 14.274 2.95583V7.64717V7.64717Z" fill="#ffffff"/>
<path d="M12.4031 15.1952C13.4377 15.1952 14.274 16.0315 14.274 17.0661C14.274 18.1007 13.4377 18.937 12.4031 18.937C11.3684 18.937 10.5322 18.1007 10.5322 17.0661V15.1952H12.4031ZM12.4031 14.2598C11.3684 14.2598 10.5322 13.4236 10.5322 12.3889C10.5322 11.3543 11.3684 10.5181 12.4031 10.5181H17.0944C18.1291 10.5181 18.9653 11.3543 18.9653 12.3889C18.9653 13.4236 18.1291 14.2598 17.0944 14.2598H12.4031Z" fill="#ffffff"/>
</svg>
